<?xml version="1.0" encoding="UTF-8"?>
<svg width="1000" height="1000" version="1.1" viewBox="0 0 1000 1000"
	xml:space="preserve" xmlns="http://www.w3.org/2000/svg" xmlns:xlink="http://www.w3.org/1999/xlink">
	<defs>
		<linearGradient id="a" x1="133.27" x2="133.27" y1="223.47" y2="39.837"
			gradientTransform="matrix(3.7736 0 0 3.7736 -4.9027e-6 -4.9027e-6)" gradientUnits="userSpaceOnUse">
			<stop stop-color="#30eebf" offset="0" />
			<stop stop-color="#1fb2cf" offset="1" />
		</linearGradient>
	</defs>
	<rect width="1e3" height="1e3" ry="0" fill="url(#a)" stroke-width=".99843" />
	<path
		d="m202.31 349.45h396.74c29.89 0 50.019 19.915 49.921 49.921-0.15887 49.072 0 399.37 0 399.37 0 29.693 20.054 49.921 49.921 49.921h99.843c30.106 0 49.921-19.724 49.921-49.921v-599.06c0-29.332-19.736-49.921-49.921-49.921h-599.06c-30.499 0-49.921 17.35-49.921 49.921v99.843c0 30.084 20.43 49.921 52.549 49.921z"
		fill="#4d4d4d" stroke-width="1.051" />
	<path
		d="m184.71 474.25h304.52c24.993 0 34.945 10.188 34.945 34.945v304.52c0 24.96-14.985 34.945-39.899 34.945h-74.921c-24.761 0.0189-34.945-10.04-34.945-34.945v-154.76c0-25.452-10.18-34.945-34.945-34.945h-154.76c-24.938 0.0661-34.945-10.486-34.945-34.945v-79.874c0-24.914 10.054-34.945 34.945-34.945z"
		fill="#4d4d4d" stroke-width=".99843" />
	<path
		d="m169.73 748.82c-12.714 0-19.969 7.7201-19.969 19.969v59.906c0 12.646 8.2098 19.969 19.969 19.969h59.906c11.874 0 19.969-7.8876 19.969-19.969v-59.906c0-12.194-8.0583-19.969-19.969-19.969z"
		fill="#4d4d4d" stroke-width=".99843" />
</svg>