<?xml version="1.0" encoding="UTF-8" standalone="no"?>
<!-- Created with Inkscape (http://www.inkscape.org/) -->

<svg
   width="1000"
   height="1000"
   viewBox="0 0 1000 1000"
   version="1.1"
   id="svg1"
   xml:space="preserve"
   inkscape:version="1.3.2 (091e20e, 2023-11-25, custom)"
   sodipodi:docname="logo.svg"
   xmlns:inkscape="http://www.inkscape.org/namespaces/inkscape"
   xmlns:sodipodi="http://sodipodi.sourceforge.net/DTD/sodipodi-0.dtd"
   xmlns:xlink="http://www.w3.org/1999/xlink"
   xmlns="http://www.w3.org/2000/svg"
   xmlns:svg="http://www.w3.org/2000/svg"><sodipodi:namedview
     inkscape:zoom="0.55719124"
     inkscape:cx="416.3741"
     inkscape:cy="489.95745"
     inkscape:window-width="1368"
     inkscape:window-height="842"
     inkscape:window-x="-6"
     inkscape:window-y="-6"
     inkscape:window-maximized="1"
     inkscape:current-layer="layer1"
     id="namedview1"
     pagecolor="#505050"
     bordercolor="#ffffff"
     borderopacity="1"
     inkscape:showpageshadow="0"
     inkscape:pageopacity="0"
     inkscape:pagecheckerboard="1"
     inkscape:deskcolor="#505050" /><defs
     id="defs1"><linearGradient
       id="linearGradient4"
       inkscape:collect="always"><stop
         style="stop-color:#30eebf;stop-opacity:1"
         offset="0"
         id="stop4" /><stop
         style="stop-color:#1fb2cf;stop-opacity:1"
         offset="1"
         id="stop5" /></linearGradient><linearGradient
       inkscape:collect="always"
       xlink:href="#linearGradient4"
       id="linearGradient5"
       x1="133.26816"
       y1="223.46796"
       x2="133.26816"
       y2="39.837406"
       gradientUnits="userSpaceOnUse"
       gradientTransform="matrix(3.7735847,0,0,3.7735847,-4.9026883e-6,-4.9026883e-6)" /></defs><g
     inkscape:label="Layer 1"
     inkscape:groupmode="layer"
     id="layer1"><rect
       style="fill:url(#linearGradient5);fill-opacity:1;stroke-width:0.99843"
       id="Background"
       width="1000"
       x="0"
       y="0"
       ry="0"
       height="1000" /><path
       style="fill:#4d4d4d;stroke-width:1.05098"
       d="m 202.31296,349.44967 h 396.74361 c 29.8897,0 50.01852,19.91512 49.92139,49.92137 -0.15887,49.07162 0,399.37107 0,399.37107 0,29.69271 20.05359,49.92135 49.92135,49.92135 h 99.8428 c 30.1055,0 49.92135,-19.72392 49.92135,-49.92135 V 199.68552 c 0,-29.33209 -19.73615,-49.92138 -49.92135,-49.92138 H 199.68552 c -30.49859,0 -49.92138,17.35045 -49.92138,49.92138 v 99.84277 c 0,30.0842 20.42975,49.92138 52.54882,49.92138 z"
       id="Large"
       sodipodi:nodetypes="scccscscscscs" /><path
       style="fill:#4d4d4d;stroke-width:0.99843"
       d="m 184.7091,474.2531 h 304.52041 c 24.99299,0 34.94499,10.18755 34.94499,34.94498 v 304.52044 c 0,24.96019 -14.98465,34.94494 -39.8986,34.94494 h -74.92056 c -24.7608,0.0189 -34.94498,-10.03981 -34.94498,-34.94494 v -154.7563 c 0,-25.4515 -10.17965,-34.94497 -34.94497,-34.94497 H 184.7091 c -24.93845,0.0661 -34.94496,-10.48634 -34.94496,-34.94494 v -79.87423 c 0,-24.91396 10.0545,-34.94498 34.94496,-34.94498 z"
       id="Medium"
       sodipodi:nodetypes="ccccccccccccc" /><path
       style="fill:#4d4d4d;stroke-width:0.99843"
       d="m 169.73269,748.82071 c -12.71401,0 -19.96855,7.72007 -19.96855,19.96856 v 59.90566 c 0,12.64597 8.20977,19.96853 19.96855,19.96853 h 59.90566 c 11.87427,0 19.96855,-7.88762 19.96855,-19.96853 v -59.90566 c 0,-12.19399 -8.0583,-19.96856 -19.96855,-19.96856 z"
       id="Small"
       sodipodi:nodetypes="ccccccccc" /></g></svg>
