<?xml version="1.0" encoding="UTF-8"?>
<svg width="500" height="500" version="1.1" viewBox="0 0 500 500"
	xml:space="preserve" xmlns="http://www.w3.org/2000/svg">
	<path fill="#315F82"
		d="m489.8 250c0 12.6-7.2 24.5-9.1 36.6-1.9 12.4 1.2 25.9-2.6 37.6-3.9 11.9-14.4 21-20 31.9-5.7 11.1-6.9 24.9-14.1 34.9-7.3 10-20.1 15.4-28.9 24.2s-14.2 21.6-24.2 28.9-23.8 8.5-34.9 14.1c-11 5.6-20.1 16.1-31.9 20-11.7 3.8-25.2 0.7-37.6 2.6-12.1 1.9-24 9.1-36.6 9.1s-24.5-7.2-36.5-9.1c-12.4-1.9-25.9 1.2-37.6-2.6-11.9-3.9-21-14.4-31.9-20-11.1-5.7-24.9-6.9-34.9-14.1-10-7.3-15.4-20.1-24.2-28.9-8.7-8.8-21.5-14.2-28.8-24.2s-8.5-23.8-14.1-34.9c-5.6-11-16.1-20.1-20-31.9-3.8-11.7-0.7-25.2-2.6-37.6-1.9-12.1-9.1-24-9.1-36.6s7.2-24.5 9.1-36.6c1.9-12.4-1.2-25.9 2.6-37.6 3.9-11.9 14.4-21 20-31.9 5.6-11 6.8-24.9 14.1-34.9s20.1-15.4 28.9-24.2c8.7-8.7 14.1-21.5 24.1-28.8s23.8-8.5 34.9-14.1c11-5.6 20.1-16.1 31.9-20 11.7-3.8 25.2-0.7 37.6-2.6 12.1-1.9 24-9.1 36.5-9.1 12.6 0 24.5 7.2 36.6 9.1 12.4 1.9 25.9-1.2 37.6 2.6 11.9 3.9 21 14.4 31.9 20 11.1 5.6 25 6.8 35 14.1s15.4 20.1 24.2 28.9 21.6 14.2 28.9 24.2 8.5 23.8 14.1 34.9c5.6 11 16.1 20.1 20 31.9 3.8 11.7 0.7 25.2 2.6 37.6 1.8 12 9 23.9 9 36.5z" />
	<ellipse fill="#F9F9FA" cx="250" cy="250" rx="219.5" ry="219.5" />
	<path fill="#315F82"
		d="m250 456.7c-114 0-206.7-92.7-206.7-206.7s92.7-206.7 206.7-206.7 206.7 92.7 206.7 206.7-92.7 206.7-206.7 206.7zm0-410.3c-112.2 0-203.6 91.3-203.6 203.6 0 112.2 91.3 203.6 203.6 203.6 112.2 0 203.6-91.3 203.6-203.6s-91.4-203.6-203.6-203.6z" />
	<g transform="matrix(1.3297 0 0 1.3297 -82.425 -81.634)">
		<polygon style="fill-rule: evenodd; clip-rule: evenodd;" fill="#315F82"
			points="252.2 389.4 256.3 390 253.3 392.9 254 397 250.3 395.1 246.6 397 247.3 392.9 244.3 390 248.5 389.4 250.3 385.6" />
		<polygon style="fill-rule: evenodd; clip-rule: evenodd;" fill="#315F82"
			points="270.6 388.2 274.7 388.8 271.7 391.7 272.4 395.8 268.7 393.9 265 395.8 265.7 391.7 262.7 388.8 266.9 388.2 268.7 384.5" />
		<polygon style="fill-rule: evenodd; clip-rule: evenodd;" fill="#315F82"
			points="288.3 384.8 292.4 385.4 289.4 388.3 290.1 392.4 286.4 390.5 282.7 392.4 283.4 388.3 280.4 385.4 284.6 384.8 286.4 381.1" />
		<polygon style="fill-rule: evenodd; clip-rule: evenodd;" fill="#315F82"
			points="305.1 379.3 309.2 379.9 306.2 382.8 307 387 303.3 385 299.6 387 300.3 382.8 297.3 379.9 301.4 379.3 303.3 375.6" />
		<polygon style="fill-rule: evenodd; clip-rule: evenodd;" fill="#315F82"
			points="321 371.9 325.1 372.5 322.1 375.4 322.8 379.5 319.1 377.6 315.4 379.5 316.1 375.4 313.2 372.5 317.3 371.9 319.1 368.1" />
		<polygon style="fill-rule: evenodd; clip-rule: evenodd;" fill="#315F82"
			points="335.7 362.6 339.8 363.2 336.9 366.2 337.6 370.3 333.9 368.3 330.2 370.3 330.9 366.2 327.9 363.2 332 362.6 333.9 358.9" />
		<polygon style="fill-rule: evenodd; clip-rule: evenodd;" fill="#315F82"
			points="349.2 351.7 353.3 352.3 350.3 355.3 351 359.4 347.3 357.4 343.7 359.4 344.4 355.3 341.4 352.3 345.5 351.7 347.3 348" />
		<polygon style="fill-rule: evenodd; clip-rule: evenodd;" fill="#315F82"
			points="361.3 339.3 365.4 339.9 362.4 342.8 363.1 346.9 359.4 345 355.7 346.9 356.4 342.8 353.4 339.9 357.6 339.3 359.4 335.6" />
		<polygon style="fill-rule: evenodd; clip-rule: evenodd;" fill="#315F82"
			points="371.8 325.5 375.9 326.1 372.9 329 373.6 333.1 369.9 331.2 366.2 333.1 366.9 329 363.9 326.1 368.1 325.5 369.9 321.8" />
		<polygon style="fill-rule: evenodd; clip-rule: evenodd;" fill="#315F82"
			points="380.6 310.5 384.7 311.1 381.7 314 382.4 318.1 378.7 316.1 375 318.1 375.7 314 372.7 311.1 376.9 310.5 378.7 306.7" />
		<polygon style="fill-rule: evenodd; clip-rule: evenodd;" fill="#315F82"
			points="387.5 294.3 391.7 294.9 388.7 297.9 389.4 302 385.7 300 382 302 382.7 297.9 379.7 294.9 383.8 294.3 385.7 290.6" />
		<polygon style="fill-rule: evenodd; clip-rule: evenodd;" fill="#315F82"
			points="392.5 277.3 396.6 277.9 393.6 280.8 394.4 284.9 390.7 282.9 387 284.9 387.7 280.8 384.7 277.9 388.8 277.3 390.7 273.5" />
		<polygon style="fill-rule: evenodd; clip-rule: evenodd;" fill="#315F82"
			points="395.4 259.4 399.5 260 396.5 262.9 397.2 267 393.5 265.1 389.8 267 390.5 262.9 387.5 260 391.7 259.4 393.5 255.6" />
		<polygon style="fill-rule: evenodd; clip-rule: evenodd;" fill="#315F82"
			points="396 240.9 400.1 241.5 397.1 244.4 397.8 248.5 394.1 246.5 390.4 248.5 391.1 244.4 388.1 241.5 392.3 240.9 394.1 237.1" />
		<polygon style="fill-rule: evenodd; clip-rule: evenodd;" fill="#315F82"
			points="394.2 222.6 398.3 223.2 395.4 226.1 396.1 230.3 392.4 228.3 388.7 230.3 389.4 226.1 386.4 223.2 390.5 222.6 392.4 218.9" />
		<polygon style="fill-rule: evenodd; clip-rule: evenodd;" fill="#315F82"
			points="390.3 205.1 394.4 205.7 391.4 208.6 392.1 212.8 388.4 210.8 384.7 212.8 385.4 208.6 382.5 205.7 386.6 205.1 388.4 201.4" />
		<polygon style="fill-rule: evenodd; clip-rule: evenodd;" fill="#315F82"
			points="384.3 188.5 388.4 189.1 385.4 192 386.1 196.1 382.4 194.2 378.7 196.1 379.4 192 376.5 189.1 380.6 188.5 382.4 184.8" />
		<polygon style="fill-rule: evenodd; clip-rule: evenodd;" fill="#315F82"
			points="376.4 172.9 380.5 173.5 377.5 176.4 378.2 180.5 374.5 178.6 370.8 180.5 371.6 176.4 368.6 173.5 372.7 172.9 374.5 169.2" />
		<polygon style="fill-rule: evenodd; clip-rule: evenodd;" fill="#315F82"
			points="366.7 158.5 370.8 159.1 367.9 162 368.6 166.1 364.9 164.2 361.2 166.1 361.9 162 358.9 159.1 363 158.5 364.9 154.7" />
		<polygon style="fill-rule: evenodd; clip-rule: evenodd;" fill="#315F82"
			points="355.4 145.3 359.5 145.9 356.5 148.9 357.3 153 353.6 151 349.9 153 350.6 148.9 347.6 145.9 351.7 145.3 353.6 141.6" />
		<polygon style="fill-rule: evenodd; clip-rule: evenodd;" fill="#315F82"
			points="342.6 133.6 346.8 134.2 343.8 137.2 344.5 141.3 340.8 139.3 337.1 141.3 337.8 137.2 334.8 134.2 338.9 133.6 340.8 129.9" />
		<polygon style="fill-rule: evenodd; clip-rule: evenodd;" fill="#315F82"
			points="328.5 123.6 332.6 124.2 329.6 127.1 330.3 131.2 326.6 129.2 323 131.2 323.7 127.1 320.7 124.2 324.8 123.6 326.6 119.8" />
		<polygon style="fill-rule: evenodd; clip-rule: evenodd;" fill="#315F82"
			points="313.2 115.2 317.3 115.8 314.3 118.7 315 122.8 311.3 120.9 307.6 122.8 308.3 118.7 305.4 115.8 309.5 115.2 311.3 111.4" />
		<polygon style="fill-rule: evenodd; clip-rule: evenodd;" fill="#315F82"
			points="296.8 108.7 300.9 109.3 297.9 112.2 298.6 116.3 295 114.4 291.3 116.3 292 112.2 289 109.3 293.1 108.7 295 105" />
		<polygon style="fill-rule: evenodd; clip-rule: evenodd;" fill="#315F82"
			points="279.5 104.3 283.6 104.8 280.6 107.8 281.3 111.9 277.7 109.9 274 111.9 274.7 107.8 271.7 104.8 275.8 104.3 277.7 100.5" />
		<polygon style="fill-rule: evenodd; clip-rule: evenodd;" fill="#315F82"
			points="261.4 101.9 265.6 102.5 262.6 105.5 263.3 109.6 259.6 107.6 255.9 109.6 256.6 105.5 253.6 102.5 257.7 101.9 259.6 98.2" />
		<polygon style="fill-rule: evenodd; clip-rule: evenodd;" fill="#315F82"
			points="242.9 101.9 247 102.5 244 105.5 244.7 109.6 241 107.6 237.4 109.6 238.1 105.5 235.1 102.5 239.2 101.9 241 98.2" />
		<polygon style="fill-rule: evenodd; clip-rule: evenodd;" fill="#315F82"
			points="224.8 104.3 229 104.8 226 107.8 226.7 111.9 223 109.9 219.3 111.9 220 107.8 217 104.8 221.1 104.3 223 100.5" />
		<polygon style="fill-rule: evenodd; clip-rule: evenodd;" fill="#315F82"
			points="207.5 108.7 211.7 109.3 208.7 112.2 209.4 116.3 205.7 114.4 202 116.3 202.7 112.2 199.7 109.3 203.8 108.7 205.7 105" />
		<polygon style="fill-rule: evenodd; clip-rule: evenodd;" fill="#315F82"
			points="191.2 115.2 195.3 115.8 192.3 118.7 193 122.8 189.3 120.9 185.6 122.8 186.3 118.7 183.3 115.8 187.5 115.2 189.3 111.4" />
		<polygon style="fill-rule: evenodd; clip-rule: evenodd;" fill="#315F82"
			points="175.8 123.6 180 124.2 177 127.1 177.7 131.2 174 129.2 170.3 131.2 171 127.1 168 124.2 172.1 123.6 174 119.8" />
		<polygon style="fill-rule: evenodd; clip-rule: evenodd;" fill="#315F82"
			points="161.7 133.6 165.8 134.2 162.8 137.2 163.5 141.3 159.9 139.3 156.2 141.3 156.9 137.2 153.9 134.2 158 133.6 159.9 129.9" />
		<polygon style="fill-rule: evenodd; clip-rule: evenodd;" fill="#315F82"
			points="148.9 145.3 153 145.9 150.1 148.9 150.8 153 147.1 151 143.4 153 144.1 148.9 141.1 145.9 145.2 145.3 147.1 141.6" />
		<polygon style="fill-rule: evenodd; clip-rule: evenodd;" fill="#315F82"
			points="137.6 158.5 141.7 159.1 138.8 162 139.5 166.1 135.8 164.2 132.1 166.1 132.8 162 129.8 159.1 133.9 158.5 135.8 154.7" />
		<polygon style="fill-rule: evenodd; clip-rule: evenodd;" fill="#315F82"
			points="127.9 172.9 132.1 173.5 129.1 176.4 129.8 180.5 126.1 178.6 122.4 180.5 123.1 176.4 120.1 173.5 124.2 172.9 126.1 169.2" />
		<polygon style="fill-rule: evenodd; clip-rule: evenodd;" fill="#315F82"
			points="120 188.5 124.2 189.1 121.2 192 121.9 196.1 118.2 194.2 114.5 196.1 115.2 192 112.2 189.1 116.3 188.5 118.2 184.8" />
		<polygon style="fill-rule: evenodd; clip-rule: evenodd;" fill="#315F82"
			points="113.1 205.3 117.2 205.9 114.2 208.8 114.9 212.9 111.2 211 107.5 212.9 108.2 208.8 105.2 205.9 109.4 205.3 111.2 201.6" />
		<polygon style="fill-rule: evenodd; clip-rule: evenodd;" fill="#315F82"
			points="108.5 222.9 112.6 223.5 109.6 226.4 110.3 230.5 106.6 228.6 102.9 230.5 103.6 226.4 100.7 223.5 104.8 222.9 106.6 219.2" />
		<polygon style="fill-rule: evenodd; clip-rule: evenodd;" fill="#315F82"
			points="107.7 240.6 111.9 241.2 108.9 244.1 109.6 248.2 105.9 246.3 102.2 248.2 102.9 244.1 99.9 241.2 104 240.6 105.9 236.8" />
		<polygon style="fill-rule: evenodd; clip-rule: evenodd;" fill="#315F82"
			points="109 259.4 113.1 260 110.1 262.9 110.8 267 107.1 265.1 103.4 267 104.1 262.9 101.1 260 105.3 259.4 107.1 255.6" />
		<polygon style="fill-rule: evenodd; clip-rule: evenodd;" fill="#315F82"
			points="111.8 277.3 115.9 277.9 112.9 280.8 113.7 284.9 110 282.9 106.3 284.9 107 280.8 104 277.9 108.1 277.3 110 273.5" />
		<polygon style="fill-rule: evenodd; clip-rule: evenodd;" fill="#315F82"
			points="116.8 294.3 120.9 294.9 117.9 297.8 118.6 302 114.9 300 111.3 302 112 297.8 109 294.9 113.1 294.3 114.9 290.6" />
		<polygon style="fill-rule: evenodd; clip-rule: evenodd;" fill="#315F82"
			points="123.8 310.5 127.9 311.1 124.9 314 125.6 318.1 121.9 316.1 118.2 318.1 118.9 314 115.9 311.1 120.1 310.5 121.9 306.7" />
		<polygon style="fill-rule: evenodd; clip-rule: evenodd;" fill="#315F82"
			points="132.6 325.5 136.7 326.1 133.7 329 134.4 333.1 130.7 331.2 127 333.1 127.7 329 124.7 326.1 128.9 325.5 130.7 321.8" />
		<polygon style="fill-rule: evenodd; clip-rule: evenodd;" fill="#315F82"
			points="143.1 339.3 147.2 339.9 144.2 342.8 144.9 346.9 141.2 345 137.5 346.9 138.2 342.8 135.2 339.9 139.4 339.3 141.2 335.6" />
		<polygon style="fill-rule: evenodd; clip-rule: evenodd;" fill="#315F82"
			points="155.1 351.7 159.3 352.3 156.3 355.3 157 359.4 153.3 357.4 149.6 359.4 150.3 355.3 147.3 352.3 151.4 351.7 153.3 348" />
		<polygon style="fill-rule: evenodd; clip-rule: evenodd;" fill="#315F82"
			points="168.6 362.6 172.7 363.2 169.7 366.2 170.5 370.3 166.8 368.3 163.1 370.3 163.8 366.2 160.8 363.2 164.9 362.6 166.8 358.9" />
		<polygon style="fill-rule: evenodd; clip-rule: evenodd;" fill="#315F82"
			points="183.3 371.9 187.5 372.5 184.5 375.4 185.2 379.5 181.5 377.6 177.8 379.5 178.5 375.4 175.5 372.5 179.7 371.9 181.5 368.1" />
		<polygon style="fill-rule: evenodd; clip-rule: evenodd;" fill="#315F82"
			points="199.2 379.3 203.3 379.9 200.4 382.8 201.1 387 197.4 385 193.7 387 194.4 382.8 191.4 379.9 195.5 379.3 197.4 375.6" />
		<polygon style="fill-rule: evenodd; clip-rule: evenodd;" fill="#315F82"
			points="216.1 384.8 220.2 385.4 217.2 388.3 217.9 392.4 214.2 390.5 210.5 392.4 211.2 388.3 208.2 385.4 212.4 384.8 214.2 381.1" />
		<polygon style="fill-rule: evenodd; clip-rule: evenodd;" fill="#315F82"
			points="233.8 388.2 237.9 388.8 234.9 391.7 235.6 395.8 231.9 393.9 228.2 395.8 228.9 391.7 225.9 388.8 230.1 388.2 231.9 384.5" />
		<polygon style="fill-rule: evenodd; clip-rule: evenodd;" fill="#315F82"
			points="252.2 389.4 256.3 390 253.3 392.9 254 397 250.3 395.1 246.6 397 247.3 392.9 244.3 390 248.5 389.4 250.3 385.6" />
	</g><text transform="translate(140.7 262.86)">
		<tspan fill="#315F82" style="font-size: 109.2234px; font-family: 'Arial'; font-weight: bold;" x="0" y="0">65%
		</tspan>
		<tspan fill="#315F82" style="font-size: 62.9368px; font-family: 'Arial'; font-weight: bold;" x="46.4" y="75.5">
			OFF</tspan>
	</text>
</svg>